<svg id="visual" viewBox="0 0 900 600" width="900" height="600" xmlns="http://www.w3.org/2000/svg" xmlns:xlink="http://www.w3.org/1999/xlink" version="1.1"><g stroke-width="1" stroke-linejoin="bevel"><path d="M504 276L511 170L426 229Z" fill="#00306e" stroke="#00306e"></path><path d="M504 276L592 200L511 170Z" fill="#00254d" stroke="#00254d"></path><path d="M426 229L380 268L504 276Z" fill="#002b5d" stroke="#002b5d"></path><path d="M504 276L600 265L592 200Z" fill="#00182b" stroke="#00182b"></path><path d="M624 72L464 81L511 170Z" fill="#002b5d" stroke="#002b5d"></path><path d="M511 170L464 81L426 229Z" fill="#0941b1" stroke="#0941b1"></path><path d="M426 229L315 218L380 268Z" fill="#00254d" stroke="#00254d"></path><path d="M409 60L315 218L426 229Z" fill="#003990" stroke="#003990"></path><path d="M464 81L409 60L426 229Z" fill="#002b5d" stroke="#002b5d"></path><path d="M392 407L496 399L504 276Z" fill="#001f3c" stroke="#001f3c"></path><path d="M504 276L578 381L600 265Z" fill="#003da1" stroke="#003da1"></path><path d="M392 407L504 276L380 268Z" fill="#00182b" stroke="#00182b"></path><path d="M496 399L578 381L504 276Z" fill="#001f3c" stroke="#001f3c"></path><path d="M315 218L313 331L380 268Z" fill="#003990" stroke="#003990"></path><path d="M668 373L679 280L600 265Z" fill="#1b44c2" stroke="#1b44c2"></path><path d="M600 265L679 280L592 200Z" fill="#00357f" stroke="#00357f"></path><path d="M592 200L624 72L511 170Z" fill="#00182b" stroke="#00182b"></path><path d="M707 96L624 72L592 200Z" fill="#00254d" stroke="#00254d"></path><path d="M464 81L538 0L409 60Z" fill="#1b44c2" stroke="#1b44c2"></path><path d="M313 331L392 407L380 268Z" fill="#003990" stroke="#003990"></path><path d="M624 72L538 0L464 81Z" fill="#00306e" stroke="#00306e"></path><path d="M578 381L668 373L600 265Z" fill="#0941b1" stroke="#0941b1"></path><path d="M661 463L668 373L578 381Z" fill="#00306e" stroke="#00306e"></path><path d="M538 0L380 0L409 60Z" fill="#001f3c" stroke="#001f3c"></path><path d="M409 60L260 83L315 218Z" fill="#1b44c2" stroke="#1b44c2"></path><path d="M780 322L728 194L679 280Z" fill="#00254d" stroke="#00254d"></path><path d="M679 280L728 194L592 200Z" fill="#00306e" stroke="#00306e"></path><path d="M223 263L280 363L313 331Z" fill="#00306e" stroke="#00306e"></path><path d="M313 331L280 363L392 407Z" fill="#00101c" stroke="#00101c"></path><path d="M728 194L707 96L592 200Z" fill="#003990" stroke="#003990"></path><path d="M624 72L639 0L538 0Z" fill="#002b5d" stroke="#002b5d"></path><path d="M535 482L569 469L496 399Z" fill="#00101c" stroke="#00101c"></path><path d="M496 399L569 469L578 381Z" fill="#00306e" stroke="#00306e"></path><path d="M380 0L260 83L409 60Z" fill="#00306e" stroke="#00306e"></path><path d="M315 218L223 263L313 331Z" fill="#00182b" stroke="#00182b"></path><path d="M168 168L223 263L315 218Z" fill="#003da1" stroke="#003da1"></path><path d="M430 496L535 482L496 399Z" fill="#00182b" stroke="#00182b"></path><path d="M430 496L496 399L392 407Z" fill="#001f3c" stroke="#001f3c"></path><path d="M683 0L639 0L624 72Z" fill="#00357f" stroke="#00357f"></path><path d="M262 467L430 496L392 407Z" fill="#00306e" stroke="#00306e"></path><path d="M230 0L221 103L260 83Z" fill="#001f3c" stroke="#001f3c"></path><path d="M260 83L221 103L315 218Z" fill="#1b44c2" stroke="#1b44c2"></path><path d="M707 96L683 0L624 72Z" fill="#003990" stroke="#003990"></path><path d="M569 469L661 463L578 381Z" fill="#0941b1" stroke="#0941b1"></path><path d="M668 373L780 322L679 280Z" fill="#00357f" stroke="#00357f"></path><path d="M623 600L661 463L569 469Z" fill="#00306e" stroke="#00306e"></path><path d="M836 396L780 322L668 373Z" fill="#002b5d" stroke="#002b5d"></path><path d="M728 194L823 91L707 96Z" fill="#003da1" stroke="#003da1"></path><path d="M707 96L783 0L683 0Z" fill="#002b5d" stroke="#002b5d"></path><path d="M380 0L262 0L260 83Z" fill="#1b44c2" stroke="#1b44c2"></path><path d="M223 263L205 371L280 363Z" fill="#1b44c2" stroke="#1b44c2"></path><path d="M280 363L262 467L392 407Z" fill="#00101c" stroke="#00101c"></path><path d="M116 308L205 371L223 263Z" fill="#002b5d" stroke="#002b5d"></path><path d="M66 79L168 168L221 103Z" fill="#00182b" stroke="#00182b"></path><path d="M221 103L168 168L315 218Z" fill="#001f3c" stroke="#001f3c"></path><path d="M205 371L262 467L280 363Z" fill="#003da1" stroke="#003da1"></path><path d="M262 0L230 0L260 83Z" fill="#00182b" stroke="#00182b"></path><path d="M780 322L825 196L728 194Z" fill="#00357f" stroke="#00357f"></path><path d="M66 79L133 197L168 168Z" fill="#00101c" stroke="#00101c"></path><path d="M168 168L133 197L223 263Z" fill="#003990" stroke="#003990"></path><path d="M825 196L823 91L728 194Z" fill="#0941b1" stroke="#0941b1"></path><path d="M823 91L783 0L707 96Z" fill="#00357f" stroke="#00357f"></path><path d="M133 197L116 308L223 263Z" fill="#001f3c" stroke="#001f3c"></path><path d="M205 371L180 504L262 467Z" fill="#003da1" stroke="#003da1"></path><path d="M430 496L534 600L535 482Z" fill="#00101c" stroke="#00101c"></path><path d="M535 482L534 600L569 469Z" fill="#00182b" stroke="#00182b"></path><path d="M432 600L534 600L430 496Z" fill="#003990" stroke="#003990"></path><path d="M281 600L432 600L430 496Z" fill="#00306e" stroke="#00306e"></path><path d="M813 469L836 396L668 373Z" fill="#00357f" stroke="#00357f"></path><path d="M900 276L900 225L825 196Z" fill="#1b44c2" stroke="#1b44c2"></path><path d="M825 196L900 111L823 91Z" fill="#00101c" stroke="#00101c"></path><path d="M813 469L668 373L661 463Z" fill="#001f3c" stroke="#001f3c"></path><path d="M116 308L138 410L205 371Z" fill="#00306e" stroke="#00306e"></path><path d="M262 467L281 600L430 496Z" fill="#001f3c" stroke="#001f3c"></path><path d="M534 600L623 600L569 469Z" fill="#0941b1" stroke="#0941b1"></path><path d="M806 600L813 469L661 463Z" fill="#001f3c" stroke="#001f3c"></path><path d="M138 410L180 504L205 371Z" fill="#002b5d" stroke="#002b5d"></path><path d="M900 276L780 322L900 363Z" fill="#003da1" stroke="#003da1"></path><path d="M900 276L825 196L780 322Z" fill="#001f3c" stroke="#001f3c"></path><path d="M823 91L900 0L783 0Z" fill="#003990" stroke="#003990"></path><path d="M623 600L662 600L661 463Z" fill="#003990" stroke="#003990"></path><path d="M900 363L780 322L836 396Z" fill="#003990" stroke="#003990"></path><path d="M180 504L281 600L262 467Z" fill="#00306e" stroke="#00306e"></path><path d="M900 225L900 111L825 196Z" fill="#002b5d" stroke="#002b5d"></path><path d="M900 471L900 363L836 396Z" fill="#002b5d" stroke="#002b5d"></path><path d="M96 0L66 79L221 103Z" fill="#003990" stroke="#003990"></path><path d="M133 197L0 198L116 308Z" fill="#001f3c" stroke="#001f3c"></path><path d="M0 412L82 475L138 410Z" fill="#0941b1" stroke="#0941b1"></path><path d="M230 0L96 0L221 103Z" fill="#003990" stroke="#003990"></path><path d="M60 600L206 600L180 504Z" fill="#002b5d" stroke="#002b5d"></path><path d="M180 504L206 600L281 600Z" fill="#00101c" stroke="#00101c"></path><path d="M900 111L900 0L823 91Z" fill="#00254d" stroke="#00254d"></path><path d="M0 412L138 410L116 308Z" fill="#00306e" stroke="#00306e"></path><path d="M138 410L82 475L180 504Z" fill="#00101c" stroke="#00101c"></path><path d="M0 64L0 198L66 79Z" fill="#001f3c" stroke="#001f3c"></path><path d="M66 79L0 198L133 197Z" fill="#0941b1" stroke="#0941b1"></path><path d="M900 600L900 471L813 469Z" fill="#003da1" stroke="#003da1"></path><path d="M813 469L900 471L836 396Z" fill="#00357f" stroke="#00357f"></path><path d="M0 198L0 301L116 308Z" fill="#00254d" stroke="#00254d"></path><path d="M662 600L806 600L661 463Z" fill="#002b5d" stroke="#002b5d"></path><path d="M0 0L0 64L66 79Z" fill="#001f3c" stroke="#001f3c"></path><path d="M0 301L0 412L116 308Z" fill="#00357f" stroke="#00357f"></path><path d="M82 475L60 600L180 504Z" fill="#00357f" stroke="#00357f"></path><path d="M96 0L0 0L66 79Z" fill="#002b5d" stroke="#002b5d"></path><path d="M0 412L0 504L82 475Z" fill="#00254d" stroke="#00254d"></path><path d="M806 600L900 600L813 469Z" fill="#002b5d" stroke="#002b5d"></path><path d="M0 504L60 600L82 475Z" fill="#00254d" stroke="#00254d"></path><path d="M0 504L0 600L60 600Z" fill="#0941b1" stroke="#0941b1"></path></g></svg>